<?xml version="1.0" standalone="no"?>
<!DOCTYPE svg PUBLIC "-//W3C//DTD SVG 20010904//EN"
 "http://www.w3.org/TR/2001/REC-SVG-20010904/DTD/svg10.dtd">
<svg version="1.0" xmlns="http://www.w3.org/2000/svg"
 width="640.000000pt" height="935.000000pt" viewBox="0 0 640.000000 935.000000"
 preserveAspectRatio="xMidYMid meet">

<g transform="translate(0.000000,935.000000) scale(0.100000,-0.100000)"
fill="#000000" stroke="none">
<path d="M0 4675 l0 -4675 514 0 c402 0 515 3 519 13 4 9 6 9 6 0 1 -10 547
-13 2681 -13 l2680 0 0 4675 0 4675 -613 0 -613 0 12 -97 c24 -189 106 -954
103 -958 -2 -2 -38 -5 -79 -6 l-75 -4 -22 215 c-12 118 -27 272 -34 342 -7 70
-16 125 -21 122 -5 -3 -7 -24 -4 -47 15 -116 24 -333 14 -343 -2 -2 -17 99
-32 224 -39 313 -72 541 -79 549 -20 19 -17 -8 69 -715 20 -161 33 -296 30
-299 -3 -4 -21 1 -39 11 -23 12 -26 15 -9 12 21 -4 22 -1 22 47 0 75 -82 825
-99 907 l-7 35 -105 3 -106 3 -32 -100 c-44 -133 -153 -346 -259 -506 -48 -71
-88 -133 -90 -137 -2 -3 6 -9 18 -13 32 -10 179 -122 254 -194 117 -112 185
-223 226 -366 l19 -65 -117 0 c-64 0 -765 0 -1557 -1 -792 -1 -1492 -1 -1556
0 l-116 1 28 83 c16 45 41 105 55 132 37 71 115 195 123 195 3 0 35 27 71 60
36 34 94 81 130 107 36 25 68 49 72 52 5 4 -36 66 -90 138 -120 163 -235 353
-299 498 l-50 110 -121 3 -120 3 -6 -53 c-18 -161 -25 -183 -19 -65 5 102 3
117 -10 117 -18 0 -23 -29 -31 -177 -3 -51 -9 -118 -12 -149 -6 -51 -8 -55
-17 -33 -9 23 -10 22 -18 -16 -4 -22 -15 -175 -24 -340 -9 -165 -19 -309 -22
-320 -11 -38 -25 -43 -97 -32 l-68 10 6 121 c16 287 38 612 51 750 8 82 15
157 15 167 0 18 -20 19 -525 19 l-525 0 0 -4675z m1229 3841 c1 -133 -2 -223
-8 -229 -5 -5 -17 -7 -25 -4 -12 5 -16 20 -16 59 0 63 17 323 27 428 l7 75 7
-55 c4 -30 8 -154 8 -274z m8 262 c-2 -13 -4 -5 -4 17 -1 22 1 32 4 23 2 -10
2 -28 0 -40z m3613 -430 c0 -18 -4 -20 -31 -14 -17 3 -39 6 -49 6 -16 0 -19
13 -11 52 0 4 21 0 46 -9 34 -11 45 -20 45 -35z m-3330 6 c8 -8 9 -14 4 -13
-5 1 -21 -1 -36 -5 -15 -5 -34 -3 -45 3 -15 8 -10 10 25 11 26 0 41 4 37 10
-10 16 1 12 15 -6z m3535 -54 c3 -5 1 -10 -4 -10 -6 0 -11 5 -11 10 0 6 2 10
4 10 3 0 8 -4 11 -10z m-4011 -32 c22 -7 44 -16 48 -22 10 -15 -2 -34 -28 -40
-17 -5 -24 -13 -24 -31 0 -29 -16 -34 -23 -7 -3 11 -5 7 -6 -10 0 -15 -5 -29
-10 -32 -11 -7 -26 128 -16 143 8 14 9 14 59 -1z m4119 -33 c-3 -13 -9 -22
-14 -19 -10 6 -12 38 -3 47 13 12 21 -3 17 -28z m-4023 -287 c0 -20 -18 -22
-94 -12 -30 4 -46 12 -46 21 0 11 15 13 70 11 59 -3 70 -6 70 -20z m4164 7 c6
-17 1 -18 -74 -15 -61 2 -65 4 -55 19 10 18 122 14 129 -4z m-1063 -29 c92
-28 229 -111 314 -191 l50 -46 -70 54 c-192 150 -394 203 -616 164 -245 -44
-467 -233 -561 -477 -25 -64 -30 -94 -35 -206 -5 -111 -2 -146 16 -233 12 -57
20 -105 18 -107 -8 -8 -46 148 -57 237 -11 82 -6 157 16 267 l7 32 -155 0
-155 0 15 -87 c17 -105 11 -245 -13 -322 -23 -76 -35 -47 -18 42 38 189 -28
443 -152 584 -52 59 -157 139 -232 177 -75 37 -80 32 -7 -8 194 -104 312 -248
358 -437 25 -102 16 -233 -14 -214 -5 3 -7 0 -4 -8 3 -8 1 -18 -5 -22 -8 -4
-11 18 -11 67 0 156 -62 300 -180 419 -85 86 -174 136 -305 169 -95 24 -236
26 -320 5 -145 -37 -286 -137 -367 -261 -23 -35 -46 -64 -51 -64 -4 0 -5 -5
-1 -12 4 -6 3 -8 -3 -5 -16 10 -34 67 -22 67 6 0 8 4 5 8 -9 15 57 117 109
167 61 59 187 137 266 164 82 29 182 43 274 37 63 -4 70 -3 35 4 -150 29 -344
-18 -497 -120 -26 -18 -74 -58 -107 -89 -42 -40 -52 -46 -35 -23 29 40 172
161 233 197 78 45 155 67 271 75 61 4 526 8 1035 8 768 2 933 -1 971 -12z
m-41 -37 c144 -28 280 -107 410 -237 82 -83 145 -179 165 -252 3 -14 -7 1 -23
32 -29 55 -62 107 -62 97 0 -2 14 -40 31 -84 44 -113 51 -257 20 -406 -32
-148 -73 -232 -164 -330 -45 -50 -166 -141 -178 -134 -5 4 -9 2 -9 -2 0 -10
-90 -56 -97 -50 -2 3 3 12 12 21 9 9 13 16 8 17 -4 1 3 4 17 8 14 4 25 14 25
23 0 9 4 20 9 25 5 4 6 3 2 -4 -15 -26 17 -22 50 6 39 35 56 41 29 11 -10 -11
-16 -23 -13 -25 3 -3 15 9 27 27 11 18 21 30 21 26 0 -10 90 85 90 94 0 5 0
10 -1 13 0 3 22 47 50 98 59 110 81 196 81 321 0 312 -187 552 -485 622 -102
24 -287 15 -376 -18 -125 -46 -299 -189 -361 -298 -50 -87 -72 -183 -73 -315
0 -106 3 -130 29 -209 36 -109 86 -186 174 -266 116 -106 258 -168 397 -171
28 -1 41 -4 31 -6 -10 -3 -28 -14 -39 -24 -40 -37 -180 -15 -301 48 -97 51
-212 165 -259 258 -70 140 -114 409 -87 540 43 218 268 462 492 534 89 29 239
33 358 10z m881 -51 c1 -24 3 -79 4 -123 1 -44 5 -146 10 -226 4 -81 4 -180 0
-222 l-7 -75 -32 10 c-32 10 -45 13 -108 23 -34 5 -38 9 -39 38 l-1 32 -7 -30
c-6 -25 -9 -18 -15 40 -32 317 -44 565 -27 565 7 0 12 -23 13 -62 l2 -63 3 55
c5 83 1 80 108 80 l95 0 1 -42z m-3607 10 c8 -13 17 -41 20 -63 7 -48 -8 -623
-17 -631 -3 -3 -32 -1 -64 5 -32 7 -67 13 -78 14 -11 1 -23 7 -27 12 -4 6 -8
-1 -8 -14 0 -13 -2 -22 -5 -20 -2 3 -9 122 -15 265 -6 142 -15 299 -21 348 -8
71 -7 91 3 98 7 4 55 8 105 8 85 0 94 -2 107 -22z m3756 -126 c0 -7 -4 -10
-10 -7 -5 3 -10 16 -10 28 0 18 2 19 10 7 5 -8 10 -21 10 -28z m74 32 c11 -4
16 -19 16 -48 0 -30 7 -48 25 -68 25 -28 33 -44 15 -33 -5 3 -10 1 -10 -4 0
-6 8 -11 18 -12 14 0 14 -2 -3 -9 -19 -8 -19 -9 3 -9 26 -1 31 -21 5 -21 -16
0 -18 -9 -15 -84 l3 -84 -48 -2 c-26 0 -56 -1 -65 -1 -10 0 -20 -5 -24 -10 -4
-6 -10 -7 -17 0 -7 5 -23 11 -37 13 -20 2 -26 10 -32 43 -11 63 -9 163 3 171
8 4 7 9 -2 15 -10 6 -5 11 19 20 30 10 32 14 32 57 1 37 3 43 11 30 5 -10 11
-31 12 -47 3 -46 27 -26 27 23 0 51 6 59 33 44 17 -9 19 -8 14 6 -7 18 -6 19
17 10z m-4251 -65 l-6 -62 29 7 c34 9 43 21 37 47 -7 25 5 69 18 69 7 0 10
-21 7 -57 l-3 -57 30 -1 30 0 3 -127 c2 -101 0 -128 -11 -128 -7 0 -18 5 -24
11 -12 12 -16 2 -26 -61 -3 -16 -5 -12 -6 14 -1 33 -4 38 -21 33 -11 -3 -20
-1 -20 4 0 5 -7 9 -15 9 -9 0 -16 -14 -20 -37 -11 -67 -13 -69 -14 -15 -1 37
-5 52 -15 52 -29 0 -36 199 -11 275 9 25 13 50 10 55 -8 13 3 30 20 30 10 0
12 -14 8 -61z m135 29 c-2 -22 -9 -34 -20 -36 -15 -3 -18 4 -18 32 0 30 4 36
21 36 17 0 20 -5 17 -32z m3007 17 c82 -22 160 -66 229 -131 57 -54 58 -55 40
-75 -17 -19 -26 -20 -94 -13 -94 9 -222 6 -235 -7 -6 -6 6 -25 33 -52 22 -23
48 -62 57 -86 18 -52 18 -54 5 -46 -7 4 -9 -2 -6 -17 3 -12 7 -46 11 -75 7
-65 -20 -141 -71 -198 -19 -22 -33 -34 -29 -27 3 6 2 12 -2 12 -5 0 -15 -6
-22 -12 -7 -7 5 22 28 64 45 82 60 153 47 223 -9 45 -19 37 -39 -30 -12 -36
-16 -43 -16 -24 -1 36 -28 45 -52 17 -10 -13 -18 -30 -19 -38 0 -13 1 -13 10
0 8 12 10 9 10 -13 0 -30 -25 -87 -44 -99 -23 -16 -65 -8 -80 14 -9 12 -16 17
-16 11 0 -18 59 -72 86 -79 25 -6 31 -18 14 -29 -6 -4 -3 -17 8 -33 l17 -27
-36 23 c-40 24 -65 30 -35 7 10 -7 15 -19 11 -24 -3 -6 1 -14 9 -17 32 -12 16
-51 -18 -45 -5 1 -13 -4 -17 -11 -5 -7 -9 -8 -9 -3 0 6 -14 11 -30 12 -19 1
-28 -2 -24 -8 3 -6 -3 -17 -15 -25 -12 -8 -21 -23 -21 -32 0 -22 106 -105 123
-96 6 4 4 -2 -6 -12 -16 -17 -91 -28 -81 -12 5 8 -30 28 -48 27 -10 0 -10 -2
0 -6 6 -2 10 -9 7 -14 -4 -5 2 -6 12 -3 12 5 8 -4 -13 -25 -21 -22 -42 -33
-67 -36 -20 -1 -37 1 -37 5 0 5 -9 7 -19 5 -29 -5 -106 50 -157 113 -101 123
-139 228 -139 382 0 113 13 164 67 275 68 138 202 248 358 291 65 18 244 17
315 -1z m1221 -87 c27 -106 29 -438 2 -422 -6 4 -8 23 -5 43 6 45 -11 343 -23
394 -12 56 11 42 26 -15z m-4428 -200 c-2 -120 -6 -218 -9 -218 -12 0 -19 94
-19 254 0 168 6 218 22 194 4 -7 7 -111 6 -230z m1424 40 c45 -19 158 -124
158 -146 0 -6 3 -18 7 -28 6 -16 5 -17 -9 -4 -9 8 -15 16 -13 18 7 8 -93 106
-130 128 -23 13 -71 30 -108 38 -38 7 -71 17 -75 21 -14 14 124 -8 170 -27z
m1063 -74 c-13 -32 -24 -53 -25 -46 0 16 41 114 46 109 2 -2 -7 -30 -21 -63z
m-1374 43 c-6 -8 -8 -16 -6 -19 3 -3 -7 -13 -22 -23 -15 -10 -36 -28 -46 -39
-11 -12 -7 -3 8 19 25 35 63 74 74 75 2 0 -2 -6 -8 -13z m296 -93 c49 -37 68
-72 68 -124 0 -34 -6 -55 -17 -67 -17 -16 -18 -16 -18 4 0 18 -5 15 -40 -19
-23 -24 -46 -38 -54 -35 -8 3 -17 -1 -20 -9 -7 -19 -43 -17 -93 5 -46 21 -64
47 -66 94 l-1 32 -10 -27 c-21 -58 -43 -12 -26 53 12 44 47 83 95 105 44 21
148 13 182 -12z m-396 -99 c-13 -42 -16 -46 -19 -23 -2 14 2 46 9 70 9 35 13
39 19 23 4 -10 0 -42 -9 -70z m2105 -121 c-5 -18 -3 -24 5 -18 7 4 9 3 6 -3
-4 -6 -21 -16 -39 -22 l-32 -11 21 19 c12 11 24 29 28 41 9 29 18 25 11 -6z
m-736 -344 c11 -20 8 -20 -208 -20 -120 0 -222 3 -225 7 -4 3 -2 12 4 20 9 10
57 13 215 13 193 0 204 -1 214 -20z m-1214 -165 c90 -19 201 -19 276 1 74 19
87 12 21 -10 -64 -23 -194 -31 -267 -17 -67 12 -149 48 -186 80 -19 17 -11 14
31 -9 31 -17 87 -37 125 -45z m1229 41 c11 -3 36 -29 55 -56 19 -28 69 -78
110 -113 41 -34 87 -76 102 -93 16 -18 52 -44 82 -58 30 -15 70 -37 89 -50 19
-14 37 -22 40 -20 2 2 26 -24 53 -58 27 -35 57 -71 67 -80 9 -10 14 -18 11
-18 -4 0 0 -8 7 -17 12 -14 12 -16 -1 -9 -8 4 -4 -2 10 -14 14 -12 20 -19 13
-16 -6 4 -14 2 -18 -3 -7 -12 30 -34 65 -39 l25 -3 -29 24 c-28 24 -24 45 4
26 25 -15 29 -10 20 21 -5 17 -7 30 -4 30 3 0 0 9 -5 19 -8 14 -7 20 5 25 9 4
12 2 8 -5 -4 -7 1 -7 15 1 21 11 21 13 6 36 -21 32 -13 30 31 -8 29 -25 35
-28 26 -11 -18 32 13 24 44 -13 14 -16 23 -23 19 -17 -3 7 -8 23 -10 35 -4 16
-2 19 7 10 19 -19 30 -14 23 11 -5 16 4 10 35 -23 l42 -45 -22 40 -22 40 31
-35 c31 -34 31 -34 21 -7 -14 40 -13 41 20 17 34 -24 90 -101 90 -123 0 -8 9
-25 20 -38 14 -17 18 -19 14 -6 -5 13 -2 16 10 11 22 -9 20 9 -4 31 -11 10
-20 26 -20 35 0 9 -6 22 -12 30 -11 12 -10 12 4 1 10 -7 27 -29 39 -47 13 -21
25 -31 32 -27 7 4 22 6 35 4 12 -1 22 3 22 9 0 6 5 8 10 5 16 -10 23 24 9 42
-12 15 -12 16 4 10 19 -7 22 0 8 22 -10 15 8 43 22 34 14 -8 7 20 -9 38 -15
17 -14 19 10 25 26 6 26 7 10 25 -16 17 -13 24 10 20 5 -1 6 5 3 14 -7 17 10
20 46 6 27 -10 32 4 10 30 -14 19 -13 49 3 49 6 0 14 7 18 15 3 8 16 15 28 16
13 0 17 3 11 6 -19 7 -16 23 5 23 9 0 23 9 30 20 7 11 18 20 25 20 6 0 29 5
50 11 31 8 37 14 35 32 -3 23 5 25 128 41 l51 6 7 -90 8 -90 61 -1 c64 -1 64
-1 -23 -28 -32 -10 -30 -10 28 -8 43 2 62 0 62 -9 0 -16 33 -24 54 -12 10 6
19 8 22 6 2 -3 -24 -21 -58 -41 -46 -27 -56 -37 -40 -37 29 0 19 -20 -11 -21
-18 -1 -16 -3 8 -10 17 -5 53 -6 80 -3 45 6 49 5 35 -9 -8 -9 -37 -25 -65 -36
l-50 -20 65 0 c36 -1 81 3 99 9 52 15 49 4 -8 -24 -28 -15 -51 -28 -51 -30 0
-2 23 -2 50 -1 28 2 50 1 50 -1 0 -3 -20 -17 -46 -33 -50 -32 -44 -48 12 -32
l37 10 -24 -25 c-13 -14 -51 -38 -84 -55 -43 -21 -51 -28 -30 -25 17 3 48 8
70 11 l40 6 -25 -20 c-14 -11 -33 -23 -42 -27 -10 -3 -18 -10 -18 -16 0 -7 18
-8 52 -4 59 8 57 0 -5 -27 l-42 -17 50 3 c28 2 59 7 69 12 42 18 3 -15 -57
-50 -34 -20 -53 -34 -42 -31 11 3 34 8 50 11 l30 6 -25 -15 -25 -15 34 -1 c32
0 33 -1 16 -14 -18 -13 -18 -13 1 -24 18 -10 18 -11 -6 -21 -14 -5 -19 -10
-12 -10 24 -2 11 -16 -31 -34 l-42 -19 32 -11 c18 -7 38 -18 45 -24 9 -10 7
-13 -13 -13 -13 0 -31 -5 -39 -10 -12 -8 -11 -10 7 -10 36 0 37 -20 1 -21 -27
0 -30 -2 -13 -9 11 -5 32 -9 48 -9 39 -1 34 -21 -6 -21 -49 0 -54 -13 -10 -26
28 -9 32 -12 15 -13 -13 -1 -30 -8 -38 -16 -14 -13 -11 -15 23 -15 28 0 34 -3
23 -10 -8 -5 -28 -10 -45 -11 -29 -1 -29 -1 -5 -9 14 -4 37 -5 51 -3 20 4 35
-4 67 -34 92 -88 77 -214 -51 -411 -84 -130 -353 -390 -537 -519 -47 -32 -134
-95 -193 -139 -59 -43 -131 -93 -160 -110 -29 -17 -176 -104 -327 -194 -470
-278 -769 -438 -792 -424 -6 4 -8 3 -5 -3 4 -6 -5 -15 -19 -22 -45 -20 -58 6
-24 47 11 13 133 85 272 161 140 76 307 171 373 211 66 41 166 101 221 135
427 259 792 532 952 711 137 154 233 291 261 373 25 74 6 167 -38 191 -25 13
-54 13 -46 0 4 -6 -12 -10 -42 -10 l-48 -1 30 -14 c17 -7 24 -14 17 -14 -7 -1
-10 -5 -7 -11 4 -6 -6 -10 -22 -10 -33 0 -48 -9 -48 -30 0 -8 5 -18 10 -22 6
-4 2 -8 -7 -8 -21 0 -24 -16 -5 -23 6 -2 -5 -7 -26 -11 -34 -6 -37 -9 -25 -23
11 -14 10 -15 -11 -8 -16 5 -21 4 -17 -4 4 -6 0 -11 -8 -11 -20 0 -20 -10 0
-24 12 -9 7 -11 -25 -8 -23 2 -41 0 -41 -6 0 -5 -10 -13 -22 -17 l-23 -7 25
-7 25 -8 -30 -7 c-16 -4 -43 -18 -60 -31 l-29 -24 24 -11 c25 -10 25 -10 -2
-5 -34 7 -37 -2 -5 -15 16 -7 11 -8 -20 -3 -47 6 -60 -11 -20 -27 l22 -9 -22
-7 c-13 -3 -23 -10 -23 -15 0 -5 -7 -6 -15 -3 -8 4 -15 2 -15 -4 0 -6 6 -12
13 -15 6 -2 -9 -8 -35 -12 -34 -5 -45 -11 -41 -21 3 -8 0 -14 -6 -14 -6 0 -11
-6 -11 -14 0 -8 -15 -17 -37 -21 l-37 -7 24 -19 25 -19 -27 0 c-16 0 -28 -4
-28 -9 0 -5 -10 -11 -21 -14 -15 -4 -20 -11 -17 -25 4 -14 1 -18 -11 -15 -9 2
-27 -7 -40 -21 -14 -14 -30 -26 -37 -26 -7 0 -16 -9 -19 -20 -4 -14 -15 -20
-35 -20 -22 0 -31 -7 -42 -30 -7 -16 -17 -30 -21 -30 -5 0 -15 -7 -23 -15 -9
-8 -24 -15 -35 -15 -10 0 -18 -6 -17 -12 2 -7 -5 -12 -14 -10 -10 2 -18 -2
-18 -8 0 -5 -7 -10 -15 -10 -8 0 -14 -4 -13 -9 3 -11 -28 -39 -102 -94 -30
-22 -77 -59 -105 -82 -27 -24 -97 -73 -155 -111 -58 -38 -134 -90 -169 -117
-50 -38 -66 -45 -77 -36 -11 9 -14 7 -14 -15 0 -36 -11 -33 -36 12 -11 20 -26
36 -33 34 -7 -1 -11 3 -8 10 2 7 -6 31 -19 53 -31 54 -17 83 15 31 24 -38 39
-50 21 -16 -6 11 -9 24 -6 28 3 5 -2 22 -10 38 -9 16 -22 45 -30 64 -12 31
-12 33 1 16 8 -11 15 -25 15 -30 0 -6 4 -5 9 2 7 11 9 10 14 -3 5 -10 3 -14
-4 -9 -7 4 -10 1 -7 -6 4 -13 38 -24 38 -12 -1 4 -7 18 -15 32 -19 34 -19 48
1 24 15 -17 15 -17 0 8 -18 31 -20 42 -6 33 6 -3 7 1 4 9 -3 9 -9 14 -13 11
-4 -2 -8 2 -8 10 0 13 3 13 17 0 9 -8 19 -13 22 -10 3 3 4 -8 3 -25 -1 -17 2
-27 8 -23 6 4 8 -1 4 -11 -4 -9 -3 -15 2 -12 5 3 14 -8 20 -24 14 -41 22 -38
9 3 -5 17 -12 42 -15 54 -3 13 -9 20 -14 17 -12 -7 -11 3 2 28 8 15 8 19 0 14
-13 -8 -14 -4 -4 19 5 15 8 14 19 -6 12 -21 13 -22 12 -4 -1 11 0 29 0 40 2
17 5 16 22 -10 26 -39 26 -58 0 -25 -27 35 -24 13 4 -33 l23 -38 -2 38 c-1 22
-9 50 -17 64 -9 13 -19 38 -22 54 -7 29 -7 29 8 10 19 -25 20 -17 2 25 -7 18
-11 42 -8 53 5 18 6 18 19 -4 l14 -24 -7 24 c-4 15 -2 21 4 17 6 -4 8 3 5 16
-4 22 -4 22 11 4 22 -27 29 -15 17 29 -9 33 -8 35 6 23 15 -11 16 -11 9 6 -7
20 -7 20 16 0 18 -15 20 -16 9 -1 -12 15 -11 20 4 37 10 11 14 24 9 32 -5 9
-2 8 11 -2 17 -14 18 -14 8 5 -12 22 1 60 18 50 5 -4 9 -1 9 6 0 7 8 5 21 -7
l22 -19 -18 35 -18 35 23 -20 23 -20 -13 25 c-13 24 -12 25 7 8 19 -17 19 -16
18 32 -1 40 2 47 12 38 10 -8 12 -7 7 5 -4 12 0 15 21 13 19 -3 23 0 16 7 -15
15 -14 30 1 20 7 -4 -2 10 -20 32 -49 60 -38 65 20 10 29 -28 38 -34 20 -15
-32 36 -42 58 -20 44 7 -4 8 -3 4 5 -4 6 -11 9 -16 6 -5 -3 -12 0 -16 6 -5 8
-3 9 6 4 10 -6 12 -4 6 11 -7 17 -6 17 16 -2 13 -11 32 -26 43 -34 18 -14 19
-13 8 1 -7 9 -11 18 -8 21 3 3 -1 11 -10 18 -8 7 -15 17 -15 23 0 6 12 0 27
-14 l27 -24 -22 32 c-26 37 -28 47 -6 39 12 -5 15 -2 10 10 -5 14 -4 15 9 4
20 -17 19 -5 -2 27 -10 15 -13 24 -6 20 6 -4 4 7 -5 25 -25 49 -66 108 -75
108 -4 0 -22 -31 -41 -69 -18 -38 -43 -79 -55 -92 -11 -13 -21 -27 -21 -31 0
-5 -11 -21 -25 -36 -14 -15 -37 -45 -51 -67 -23 -35 -101 -110 -81 -77 5 7 3
12 -4 12 -7 0 -2 11 11 25 13 14 20 25 15 25 -4 0 0 9 10 20 22 24 9 27 -17 3
-18 -16 -18 -16 -12 0 7 19 -20 25 -31 7 -3 -5 -11 -10 -17 -10 -7 0 -6 5 1
14 10 12 7 14 -19 11 -26 -4 -31 -1 -26 11 5 12 2 15 -10 10 -14 -5 -15 -4 -4
9 11 13 10 14 -4 9 -9 -3 -16 -1 -16 5 0 6 -8 11 -17 11 -15 0 -15 1 2 13 16
13 15 14 -16 10 -30 -3 -32 -2 -15 9 23 16 56 45 41 37 -5 -3 -19 -9 -29 -13
-17 -6 -17 -5 -5 10 12 15 11 16 -9 10 -24 -8 -29 3 -9 23 10 10 6 10 -17 1
-16 -6 -31 -8 -34 -5 -3 3 -1 5 4 5 6 0 19 7 30 15 19 15 19 15 -1 8 -18 -6
-18 -5 -6 10 8 10 9 17 3 17 -6 0 -14 -4 -17 -10 -3 -5 -11 -10 -17 -10 -6 0
-3 9 8 21 16 17 16 22 4 29 -13 8 -13 10 0 10 12 1 11 4 -4 15 -10 7 -15 18
-11 24 4 7 -1 8 -12 4 -16 -6 -16 -4 2 18 11 13 13 18 5 12 -19 -18 -33 -16
-26 2 3 8 1 15 -5 15 -6 0 -9 6 -7 12 3 7 1 17 -4 23 -5 5 -15 19 -24 30 -13
17 -12 15 1 -12 19 -41 5 -43 -18 -3 -18 29 -18 29 10 44 30 16 80 66 105 106
8 14 27 61 43 105 22 63 26 92 23 146 -4 67 -24 112 -39 88 -4 -7 -2 -24 5
-38 7 -14 13 -50 14 -79 l2 -54 -33 44 c-29 38 -39 44 -87 51 -30 4 -106 6
-167 4 -87 -2 -113 0 -113 10 0 12 -7 11 -47 -3 -27 -10 -53 -12 -53 -3 0 4
-17 2 -37 -4 -28 -9 -37 -9 -40 0 -3 8 -12 9 -29 3 -13 -5 -30 -7 -39 -4 -18
7 -87 -15 -80 -26 6 -9 -33 -26 -49 -21 -5 1 -13 -4 -18 -11 -25 -34 5 71 31
114 19 31 26 48 17 48 -37 0 -76 -86 -76 -168 0 -91 63 -250 116 -291 16 -12
20 -22 13 -32 -14 -23 -10 -30 10 -19 19 10 19 9 5 -17 -7 -16 -14 -35 -14
-43 0 -8 6 -4 13 9 6 14 18 26 25 29 10 3 8 -4 -4 -24 -17 -26 -17 -28 -1 -15
12 9 17 10 17 2 0 -6 -7 -14 -15 -17 -8 -3 -31 -21 -52 -40 -20 -19 -47 -34
-59 -34 -13 0 -32 -14 -48 -34 -36 -48 -33 -53 7 -9 26 28 38 34 53 28 17 -7
16 -9 -8 -18 -16 -6 -28 -17 -28 -24 0 -8 -7 -16 -16 -20 -13 -5 -13 -7 -2
-15 10 -6 3 -17 -27 -43 -35 -30 -37 -34 -15 -29 21 5 17 -2 -25 -40 -27 -24
-52 -41 -55 -36 -3 5 -12 5 -20 0 -12 -8 -12 -10 -1 -10 11 0 11 -3 1 -15 -10
-13 -27 -14 -85 -9 -84 8 -93 -1 -71 -66 8 -22 11 -40 7 -40 -12 0 -49 65 -59
102 -6 21 -20 51 -32 67 -11 17 -38 67 -59 112 -21 45 -42 76 -45 70 -4 -6 -5
-15 -2 -20 9 -14 -5 -42 -16 -35 -6 4 -8 -1 -4 -14 4 -11 -1 -52 -10 -92 -13
-61 -14 -74 -3 -81 12 -7 11 -9 -1 -9 -12 -1 -12 -3 3 -14 9 -7 17 -18 17 -25
0 -6 7 -11 16 -11 8 0 12 -4 9 -10 -4 -6 1 -7 11 -3 15 5 16 2 11 -24 -7 -35
0 -48 20 -32 15 14 16 9 4 -25 -7 -16 -7 -26 0 -28 7 -2 6 -13 -1 -33 -6 -16
-8 -27 -4 -23 10 11 37 -21 30 -37 -3 -8 1 -21 10 -29 11 -12 12 -24 5 -58
l-10 -43 25 30 c19 24 24 26 24 12 0 -10 5 -15 10 -12 17 11 11 -34 -10 -75
-29 -56 -18 -50 21 13 32 49 34 50 37 26 2 -15 -4 -44 -12 -64 -21 -50 -20
-57 3 -19 26 43 44 54 31 19 -7 -19 -7 -24 2 -19 8 5 9 2 3 -12 -11 -24 -14
-94 -4 -94 4 0 10 8 14 18 6 16 7 16 16 -1 6 -9 7 -23 4 -30 -4 -6 0 -4 9 7
14 17 15 16 9 -18 -5 -35 7 -50 22 -26 4 6 10 8 15 5 5 -3 16 7 24 22 14 27
14 25 11 -37 -4 -63 -3 -64 11 -37 9 16 17 27 19 25 6 -6 -17 -92 -33 -123
-20 -39 -10 -30 33 31 19 27 35 44 35 39 -1 -23 -38 -85 -62 -104 -29 -24 -43
-27 -32 -9 5 7 9 21 9 31 2 15 -1 15 -22 -5 -30 -28 -30 -16 1 25 30 41 44 70
16 35 -11 -14 -29 -37 -39 -49 l-18 -23 -77 37 c-42 20 -82 37 -87 37 -5 0
-23 10 -39 22 -22 16 -27 24 -18 30 8 4 -1 6 -20 4 -18 -2 -30 -1 -27 2 3 3
-2 14 -11 24 -14 14 -20 15 -31 6 -11 -9 -19 -9 -35 1 -13 8 -24 9 -30 3 -7
-7 -25 -3 -54 10 -24 10 -49 16 -54 13 -6 -3 -10 -2 -10 4 0 5 -26 8 -62 6
-56 -2 -59 -2 -33 9 22 9 25 14 14 18 -9 3 -22 2 -30 -3 -8 -5 -34 -8 -59 -8
-25 1 -36 3 -25 6 44 9 76 26 67 35 -5 5 -34 13 -63 18 -96 16 -119 22 -119
30 0 4 -15 11 -32 15 -28 6 -30 8 -13 14 25 10 -112 22 -175 16 l-45 -5 33 20
c18 11 46 20 62 20 17 0 30 5 30 10 0 6 12 8 28 4 19 -4 23 -3 13 4 -11 8 -9
11 9 17 21 7 19 9 -20 26 -23 11 -52 16 -65 13 -28 -7 -40 9 -20 26 13 11 14
10 9 -6 -6 -16 -5 -17 7 -6 12 11 11 16 -6 28 -11 8 -25 12 -31 10 -7 -3 -15
2 -18 10 -3 8 -16 14 -28 14 l-23 1 23 13 c23 12 23 13 -10 13 -18 0 -53 4
-78 10 -42 9 -43 9 -17 16 33 9 36 27 4 27 -25 0 -32 25 -14 48 7 9 5 11 -8 6
-12 -5 -16 -4 -12 3 9 14 -18 24 -40 16 -15 -5 -14 -3 2 11 19 16 15 17 -70
12 l-90 -5 65 13 65 14 -60 2 -60 2 48 13 c70 19 71 28 2 22 -34 -3 -67 -2
-75 3 -12 8 -9 10 10 10 46 1 69 11 67 31 -1 10 -8 19 -17 19 -12 1 -11 4 5
18 36 32 30 45 -17 38 l-43 -7 35 17 c31 14 33 17 15 24 -17 7 -16 9 15 18 33
11 32 11 -15 5 -54 -6 -79 -22 -102 -67 -38 -74 24 -220 171 -406 135 -170
243 -273 427 -412 302 -226 846 -502 1199 -607 115 -34 180 -78 154 -103 -6
-6 -114 20 -244 59 -158 47 -294 103 -506 208 -116 58 -216 105 -221 105 -18
0 -367 214 -443 272 -108 81 -266 224 -331 299 -144 165 -251 325 -285 426
-12 34 -24 60 -28 56 -12 -12 -6 16 15 72 20 53 46 82 159 174 l25 21 -24 6
-23 7 23 12 c21 12 19 13 -27 19 -56 8 -95 26 -57 26 12 0 25 5 28 10 4 7 -3
9 -22 6 -15 -3 -8 1 16 9 70 23 73 35 10 35 -29 0 -61 5 -69 10 -12 8 -9 10
12 10 15 0 33 6 40 13 7 6 29 20 48 29 l35 17 -30 1 c-16 1 -39 5 -50 10 -17
7 -16 9 10 10 l30 2 -30 13 c-30 14 -30 14 24 15 60 0 60 12 1 28 l-35 10 30
2 30 1 -25 11 -25 11 30 7 c28 7 26 8 -15 10 -38 2 -41 3 -20 10 23 7 23 8
-10 10 -30 2 -27 4 25 15 58 11 59 12 27 19 -18 4 -31 11 -27 14 3 3 -14 14
-37 23 l-43 18 65 2 c36 1 56 3 45 6 -24 6 -44 23 -27 23 7 0 12 5 12 10 0 6
-17 11 -37 12 l-38 1 39 4 c29 3 36 7 25 13 -10 7 -6 11 19 16 39 8 42 22 5
30 -62 13 -69 23 -18 24 43 0 47 2 30 12 -11 6 -22 15 -25 19 -3 4 -31 15 -63
24 -64 18 -73 28 -25 24 18 -1 49 -1 68 0 l35 2 -30 14 c-16 7 -25 14 -20 14
6 1 3 6 -5 11 -11 7 -3 10 29 10 24 0 41 3 37 7 -4 4 8 13 26 19 l33 11 -40 8
c-22 4 -46 13 -54 19 -8 6 -26 17 -40 23 -25 12 -24 13 15 10 28 -1 40 1 37 9
-3 8 5 10 23 6 17 -3 25 -1 20 6 -3 6 0 12 6 15 7 2 -9 12 -37 21 l-50 16 70
-5 70 -4 -47 15 c-56 18 -63 32 -13 26 20 -2 35 0 35 6 0 6 10 12 22 14 21 3
20 5 -12 22 -50 27 -86 56 -69 56 8 1 3 7 -11 15 -29 17 -13 20 26 5 25 -10
26 -9 13 7 -12 15 -12 16 5 10 17 -7 17 -6 5 9 -12 15 -11 16 11 9 24 -7 24
-7 5 8 -19 15 -18 15 15 13 19 -2 46 -6 60 -10 17 -5 11 2 -20 24 -40 29 -40
32 3 15 8 -4 14 1 14 9 0 8 -3 13 -7 11 -4 -2 -7 2 -7 10 0 10 8 12 30 8 23
-5 28 -3 22 6 -4 7 -9 36 -11 63 -4 45 -2 49 13 43 10 -4 50 -10 90 -12 l72
-6 6 -36 c9 -55 16 -61 86 -71 101 -16 120 -21 113 -31 -5 -8 9 -13 29 -10 4
0 7 -5 7 -13 0 -8 7 -16 15 -20 10 -4 15 -20 15 -50 0 -40 2 -44 21 -39 19 5
20 4 8 -16 -8 -11 -18 -21 -22 -21 -5 0 -5 -19 -2 -42 3 -24 8 -57 10 -74 2
-18 10 -45 19 -62 8 -16 12 -32 9 -36 -4 -4 3 -14 16 -22 18 -13 20 -18 9 -32
-11 -13 -10 -14 9 -4 31 17 92 92 87 107 -7 17 47 78 93 106 41 26 131 35 94
10 -12 -7 -21 -17 -21 -21 0 -10 59 -4 96 10 15 6 29 8 32 5 3 -3 1 -5 -4 -5
-6 0 -19 -7 -30 -16 -18 -15 -18 -15 3 -5 28 14 54 15 33 1 -8 -5 -11 -10 -6
-10 5 0 2 -8 -5 -17 -13 -15 -11 -16 21 -10 l35 7 -30 -26 c-17 -15 -22 -24
-12 -20 9 3 17 1 17 -5 0 -6 6 -9 14 -6 21 8 27 -3 15 -26 -7 -12 -7 -17 -1
-13 6 3 12 0 14 -9 2 -10 20 1 57 36 30 27 51 52 48 56 -3 3 -25 -4 -49 -15
-23 -12 -44 -20 -46 -17 -2 2 18 15 45 29 28 13 63 41 79 61 26 33 188 160
204 160 3 0 23 19 43 42 21 23 69 67 107 98 42 35 87 84 115 126 l46 70 55 -3
c30 -2 54 -7 54 -13 0 -5 4 -5 8 2 8 13 82 13 82 0 0 -4 10 -2 23 4 12 7 38
14 57 16 19 2 36 5 37 7 6 5 138 -1 158 -8z m-833 -82 c-59 -35 -98 -46 -112
-29 -8 9 -6 14 6 19 23 9 36 7 30 -3 -4 -5 4 -7 16 -3 15 3 18 7 9 10 -18 6
35 30 69 31 22 1 19 -3 -18 -25z m-405 -20 c-3 -3 -12 -4 -19 -1 -8 3 -5 6 6
6 11 1 17 -2 13 -5z m76 -11 c-7 -2 -21 -2 -30 0 -10 3 -4 5 12 5 17 0 24 -2
18 -5z m166 3 c-2 -2 -26 -6 -54 -10 -36 -5 -46 -4 -35 3 13 10 99 16 89 7z
m1823 -46 c-2 -16 -8 -30 -12 -30 -5 0 -7 8 -5 18 2 9 4 23 4 30 1 6 5 12 9
12 5 0 7 -13 4 -30z m-2097 -340 c-3 -5 -12 -10 -18 -10 -7 0 -6 4 3 10 19 12
23 12 15 0z m-195 -41 c-12 -16 -25 -28 -28 -25 -5 6 36 56 45 56 3 0 -5 -14
-17 -31z m1024 -268 c6 -9 -35 -24 -43 -15 -6 5 18 24 31 24 4 0 9 -4 12 -9z
m466 -415 c0 -6 -7 -1 -15 10 -8 10 -15 23 -15 28 0 6 7 1 15 -10 8 -10 15
-23 15 -28z m-1060 -316 c0 -5 -5 -10 -11 -10 -5 0 -7 5 -4 10 3 6 8 10 11 10
2 0 4 -4 4 -10z m300 -74 c0 -2 -8 -10 -17 -17 -16 -13 -17 -12 -4 4 13 16 21
21 21 13z m-40 -20 c0 -2 -7 -7 -16 -10 -8 -3 -12 -2 -9 4 6 10 25 14 25 6z
m3050 -314 c0 -13 -319 -323 -455 -443 -143 -126 -209 -179 -297 -243 -64 -45
-68 -46 -99 -33 l-32 13 158 119 c244 183 431 351 575 519 62 72 67 75 108 76
23 0 42 -4 42 -8z m-4694 -164 c15 -29 74 -120 132 -203 182 -258 425 -483
707 -655 240 -147 765 -358 1093 -441 35 -8 48 -16 40 -22 -8 -5 1 -6 22 -3
30 5 31 5 12 -4 -63 -27 -667 163 -928 291 -131 64 -350 193 -454 267 -36 25
-120 100 -188 166 -82 80 -118 110 -109 91 40 -87 65 -142 72 -160 7 -19 8
-19 15 5 l8 25 1 -27 c1 -24 -8 -31 -80 -67 -71 -36 -83 -39 -100 -27 -20 14
-195 243 -322 420 -63 90 -107 175 -107 209 0 15 92 47 136 47 l29 1 -27 22
c-16 13 -28 31 -28 40 0 24 28 77 40 77 5 0 22 -24 36 -52z m-179 -197 l31
-69 -38 -21 c-21 -11 -42 -21 -48 -21 -9 0 -72 122 -72 140 0 8 66 39 86 39 6
1 25 -30 41 -68z m-146 -71 c24 0 35 -10 75 -71 l47 -71 21 27 21 26 19 -31
c18 -31 18 -32 -3 -54 l-21 -23 33 -34 c18 -19 66 -82 106 -142 40 -59 78
-110 84 -114 9 -5 9 -3 1 8 -9 11 -9 17 1 26 10 9 29 -11 91 -100 89 -126 91
-129 71 -121 -16 6 -63 -19 -84 -44 -9 -11 -20 -2 -62 50 -27 35 -87 121 -133
191 -46 71 -121 181 -168 245 -91 125 -160 228 -160 238 0 3 7 3 16 0 9 -3 29
-6 45 -6z m2029 -56 c-8 -8 -23 -20 -34 -25 -13 -7 -9 -1 9 15 34 29 43 33 25
10z m960 -84 c1 16 43 -59 55 -99 5 -16 4 -21 -4 -17 -6 4 -11 1 -11 -6 0 -9
-3 -9 -10 2 -8 13 -10 12 -10 -4 0 -32 -10 -11 -20 40 -4 27 -11 60 -15 74 -5
19 -4 22 4 10 10 -13 11 -13 11 0z m-2716 -111 c25 -45 25 -46 4 -44 -21 1
-72 61 -84 98 -4 12 -1 23 7 28 16 10 35 -11 73 -82z m3766 -133 c0 -9 -442
-287 -502 -316 -51 -25 19 22 147 99 72 43 180 111 240 150 112 72 115 74 115
67z m646 -221 c24 -49 70 -125 102 -167 31 -43 68 -98 82 -124 25 -45 25 -46
6 -60 -11 -8 -28 -14 -38 -14 -10 0 -75 -32 -144 -71 -74 -42 -140 -72 -162
-74 -58 -6 -123 -28 -172 -57 -25 -15 -104 -52 -175 -81 -340 -141 -335 -139
-335 -166 1 -14 2 -14 11 2 6 9 14 15 19 12 5 -3 11 -1 15 5 12 20 31 10 30
-17 0 -17 -6 -27 -18 -29 -35 -5 -49 -14 -43 -29 3 -8 -1 -18 -8 -22 -16 -10
-36 -47 -36 -65 1 -7 9 -3 20 11 11 13 20 20 20 17 0 -11 -43 -66 -51 -66 -9
0 -2 46 11 71 15 28 11 36 -6 14 -16 -19 -16 -19 -9 5 4 14 14 40 21 59 8 18
14 38 14 44 0 21 -42 -31 -69 -84 -22 -44 -37 -59 -86 -87 -33 -18 -72 -35
-87 -37 -15 -2 -36 -6 -46 -9 -21 -7 -36 7 -47 43 -5 16 -4 21 4 17 6 -4 11 0
11 10 0 12 -6 15 -25 12 -17 -4 -25 -1 -25 9 0 9 -5 11 -12 7 -7 -4 -28 -9
-47 -11 -20 -2 -44 -13 -54 -24 -10 -10 -24 -19 -32 -19 -14 0 -19 -10 -16
-35 1 -14 -75 -49 -88 -40 -6 3 -8 11 -5 17 5 8 1 9 -11 4 -16 -6 -16 -4 -4
13 53 72 365 431 433 497 30 30 77 44 156 49 38 2 103 16 125 28 11 6 29 12
40 13 51 8 145 55 189 96 13 12 35 18 64 18 41 0 48 5 105 63 79 80 123 107
176 107 43 0 49 4 103 75 28 37 30 45 24 95 -3 30 -8 69 -12 85 l-6 30 22 -25
c12 -14 41 -65 66 -115z m-1176 -110 c0 -2 -13 -11 -30 -20 -38 -19 -40 -11
-2 9 31 17 32 18 32 11z m-655 -325 c-11 -5 -27 -9 -35 -9 -9 0 -8 4 5 9 11 5
27 9 35 9 9 0 8 -4 -5 -9z m1973 -47 c156 -157 329 -372 365 -452 l19 -43 -23
-32 -22 -31 26 24 c15 14 27 22 27 19 0 -8 43 -122 80 -213 84 -204 192 -611
229 -860 32 -211 58 -578 41 -583 -7 -3 -7 -8 -2 -15 16 -19 21 -139 6 -133
-7 3 -15 2 -18 -2 -18 -17 -48 -8 -87 28 -24 22 -47 40 -51 40 -14 0 -8 47 7
60 17 14 21 60 5 60 -17 0 -11 40 11 69 20 28 21 36 15 237 -9 340 -32 543
-57 503 -6 -11 -9 -8 -10 11 -1 20 -3 18 -9 -10 -4 -19 -10 -55 -13 -80 -17
-145 -64 -360 -78 -360 -5 0 -9 -7 -9 -15 0 -8 -4 -15 -10 -15 -5 0 -10 -15
-10 -32 0 -22 -3 -29 -9 -20 -5 9 -10 0 -15 -27 -3 -23 -10 -41 -14 -41 -4 0
-14 -15 -21 -32 -8 -18 -24 -41 -35 -51 -15 -13 -17 -20 -9 -23 10 -4 10 -11
-2 -27 -8 -12 -15 -27 -15 -35 0 -7 -12 -29 -26 -48 -15 -19 -24 -34 -20 -34
3 0 -2 -9 -11 -19 -33 -36 -43 -50 -43 -60 0 -11 -64 -44 -97 -50 -5 -1 -1 -6
7 -11 12 -7 7 -12 -23 -25 -20 -8 -37 -20 -37 -26 0 -7 -10 -9 -27 -4 -43 10
-49 22 -24 44 l23 20 -25 6 c-28 8 -51 -1 -42 -16 4 -5 1 -9 -4 -9 -6 0 -11
20 -11 45 0 38 3 45 20 45 13 0 20 7 20 19 0 11 15 28 35 41 19 12 35 26 35
31 0 5 4 9 9 9 12 0 61 44 61 55 0 4 10 16 22 26 11 11 18 19 14 19 -4 0 3 21
17 48 63 126 97 199 97 208 0 5 6 20 13 34 7 14 19 45 27 70 8 25 17 47 21 50
5 3 18 53 29 110 12 58 30 137 40 176 28 107 35 205 20 274 -7 33 -16 60 -20
60 -4 0 -13 -20 -19 -45 -6 -25 -15 -45 -20 -45 -5 0 -22 -33 -38 -72 -28 -73
-28 -73 -34 -38 l-5 35 -10 -35 c-8 -24 -7 -40 0 -53 9 -14 1 -36 -37 -110
-42 -79 -48 -86 -42 -52 8 47 73 245 85 260 5 6 12 25 15 43 3 18 12 60 19 94
22 96 40 253 32 274 -7 16 -10 14 -26 -17 -11 -20 -33 -72 -50 -115 -17 -43
-39 -89 -49 -103 -10 -14 -28 -46 -40 -71 -37 -76 -87 -162 -102 -174 -17 -13
-79 -106 -79 -118 0 -4 -6 -8 -13 -8 -8 0 -22 -9 -32 -20 -10 -11 -28 -20 -40
-20 -11 0 -25 -4 -31 -9 -5 -5 -19 -12 -31 -15 -37 -12 208 462 360 694 l48
75 -39 -45 c-38 -42 -105 -144 -166 -252 -15 -27 -31 -48 -36 -48 -9 0 14 89
31 122 12 23 12 49 0 28 -5 -8 -9 -19 -9 -24 0 -5 -5 -12 -10 -15 -16 -10 -52
-89 -52 -114 0 -14 -7 -38 -15 -53 -8 -16 -15 -22 -15 -14 0 24 -25 -19 -49
-85 -41 -115 -54 -124 -106 -83 l-28 22 7 95 c4 53 9 134 12 181 9 157 24 364
31 419 4 36 3 52 -4 48 -17 -10 -48 -185 -59 -332 -3 -49 -12 -108 -19 -130
-7 -22 -16 -64 -19 -94 -4 -29 -14 -60 -22 -68 -7 -8 -14 -24 -14 -35 0 -11
-8 -28 -18 -37 -9 -9 -23 -29 -30 -44 -7 -15 -17 -25 -22 -22 -6 3 -10 0 -10
-8 0 -8 -6 -27 -14 -42 -12 -23 -15 -24 -19 -8 -4 17 -4 17 -12 -2 -5 -10 -17
-28 -26 -40 -10 -11 -25 -29 -34 -40 -16 -20 -16 -20 -6 2 15 29 14 38 -2 24
-8 -6 -17 -7 -21 -3 -4 4 -6 1 -4 -7 3 -14 -92 -94 -101 -86 -2 3 -12 -2 -22
-11 -13 -12 -19 -12 -25 -3 -4 8 -3 10 4 5 7 -4 12 -2 12 4 0 7 -7 9 -16 6 -9
-4 -24 -1 -32 6 -13 11 -14 11 -7 -2 14 -22 13 -49 -1 -43 -13 5 -30 66 -26
96 3 24 -27 22 -55 -5 -21 -19 -25 -20 -34 -8 -5 8 -7 24 -4 35 3 11 8 175 11
365 l6 345 30 77 c26 66 40 87 97 140 37 35 121 101 186 147 113 80 213 157
225 173 10 13 205 157 213 158 4 0 33 -26 65 -57z m-2043 27 c-11 -5 -27 -9
-35 -9 -9 0 -8 4 5 9 11 5 27 9 35 9 9 0 8 -4 -5 -9z m-2282 -37 c-13 -48 -5
-144 13 -164 17 -19 16 -37 -2 -152 -4 -25 1 -61 14 -105 58 -191 92 -374 92
-490 0 -96 -7 -101 -65 -42 -27 28 -41 36 -46 28 -6 -9 -10 -8 -15 5 -3 9 -12
17 -19 17 -8 0 -17 9 -20 20 -3 11 -11 20 -16 20 -6 0 -7 6 -3 13 4 6 3 9 -1
4 -5 -4 -17 1 -28 10 -48 42 5 -25 95 -122 89 -94 108 -119 118 -155 7 -25
-40 17 -225 196 -129 124 -261 258 -292 297 -32 39 -71 85 -86 101 -56 61 -62
49 131 244 172 175 319 302 348 302 11 0 13 -7 7 -27z m2999 -130 c-163 -176
-390 -452 -440 -535 -26 -43 -51 -77 -55 -78 -5 0 -5 5 -1 12 5 7 2 9 -8 5
-12 -4 -14 -1 -11 14 10 37 -7 19 -28 -31 -20 -47 -39 -58 -39 -22 0 31 61
146 118 222 153 205 397 484 413 474 5 -3 8 0 7 6 -2 7 4 14 12 16 65 14 71
14 76 -1 3 -8 10 -12 15 -9 5 3 6 10 3 16 -4 7 -2 8 4 4 7 -4 12 -2 12 3 0 6
5 11 11 11 6 0 -34 -48 -89 -107z m-2746 -150 c22 -9 42 -17 46 -17 4 -1 16
-8 27 -17 10 -10 29 -20 42 -24 13 -5 61 -25 107 -46 46 -22 89 -39 95 -39 7
0 23 -9 37 -20 14 -11 28 -20 32 -20 14 0 58 -43 58 -56 0 -13 23 -25 52 -29
10 -1 26 -9 36 -18 10 -9 24 -17 30 -17 7 0 12 -4 12 -10 0 -5 7 -10 15 -10 8
0 25 -11 39 -25 14 -14 32 -25 40 -25 8 0 20 -16 27 -35 7 -19 21 -37 31 -41
10 -3 18 -12 18 -20 0 -8 4 -14 9 -14 5 0 13 -9 16 -20 4 -11 11 -17 17 -14 7
5 8 -43 3 -158 -6 -150 -20 -265 -25 -213 -3 37 -21 -37 -19 -85 3 -115 -1
-161 -13 -154 -6 4 -8 3 -5 -3 4 -6 0 -28 -9 -49 -9 -22 -16 -40 -15 -41 6
-15 -4 -22 -26 -19 -16 2 -19 1 -9 -1 16 -4 17 -7 5 -15 -10 -7 -8 -8 9 -3 27
8 30 -11 2 -20 -11 -3 -20 -15 -20 -25 0 -23 -26 -34 -34 -14 -3 9 -3 26 0 40
6 24 -9 34 -21 14 -3 -5 -16 -8 -28 -6 -12 3 -30 5 -39 5 -11 1 -15 6 -12 15
5 12 -4 14 -47 10 -29 -3 -57 -6 -63 -7 -6 -1 -10 4 -9 11 2 6 -4 12 -13 12
-8 0 -13 -4 -9 -9 8 -15 -60 -30 -101 -24 -20 3 -41 14 -47 24 -7 11 -17 19
-24 19 -7 0 -13 7 -13 15 0 8 -7 15 -16 15 -22 0 -53 37 -60 69 -7 34 -17 53
-26 49 -11 -5 -39 39 -42 67 -1 13 -7 30 -13 37 -6 7 -11 15 -11 18 -1 3 -5
18 -11 33 -6 16 -11 33 -11 39 0 9 -26 88 -48 148 -3 8 -5 27 -4 43 0 15 -4
27 -9 27 -6 0 -7 5 -3 11 4 6 2 34 -5 63 -6 28 -23 134 -37 236 -14 102 -28
196 -30 210 -11 68 -11 136 -1 142 21 13 83 9 123 -9z m2427 -43 c-9 -14 -49
-65 -88 -115 -82 -103 -143 -193 -169 -248 -75 -163 -119 -270 -138 -338 -12
-44 -25 -75 -28 -68 -4 6 -6 19 -4 28 42 189 118 378 207 511 73 110 220 280
229 266 4 -6 0 -22 -9 -36z m-105 -26 c-12 -12 -17 -13 -23 -3 -5 8 -4 10 4 5
6 -4 14 0 17 9 4 9 9 13 12 10 3 -3 -1 -13 -10 -21z m332 -129 c0 -30 25 -24
34 8 l6 22 20 -24 c28 -33 25 -41 -14 -41 -19 0 -36 -4 -38 -9 -5 -15 -60 -18
-65 -4 -2 7 5 20 16 30 12 9 21 23 21 30 0 7 5 13 10 13 6 0 10 -11 10 -25z
m-2975 -499 c88 -87 147 -148 131 -135 l-28 24 33 -53 c17 -29 30 -55 26 -58
-3 -3 -36 25 -74 61 -105 104 -163 119 -163 44 0 -47 26 -89 109 -178 59 -63
101 -127 101 -156 0 -8 6 -15 13 -15 9 0 9 -2 -1 -9 -11 -7 -11 -11 2 -23 14
-14 13 -16 -12 -14 -34 1 -129 95 -159 157 -37 77 -53 119 -53 140 0 11 -5 25
-11 32 -5 7 -51 74 -100 149 -101 153 -164 228 -221 264 -21 14 -36 29 -33 33
5 9 -17 21 -36 21 -4 0 -8 -36 -7 -81 0 -49 4 -76 9 -67 6 8 9 -2 9 -29 0 -49
8 -75 22 -67 6 4 7 -11 3 -39 -7 -45 10 -117 27 -117 4 0 8 -24 8 -54 0 -29 5
-68 11 -87 26 -79 72 -188 78 -185 3 2 6 -9 7 -26 1 -16 7 -35 13 -41 9 -9 11
-8 6 8 -6 18 -5 18 5 2 6 -9 9 -21 6 -26 -8 -13 14 -82 24 -76 6 4 7 -1 3 -11
-5 -12 -3 -15 6 -9 10 5 11 2 6 -14 -3 -11 -2 -21 3 -21 5 0 17 -27 27 -60 10
-32 22 -57 26 -54 5 3 9 -2 9 -10 0 -8 11 -36 25 -62 14 -26 25 -53 25 -60 0
-8 4 -14 9 -14 5 0 12 -11 15 -25 4 -14 11 -23 16 -20 5 3 12 -4 15 -16 6 -19
42 -79 63 -104 4 -5 10 -14 11 -20 2 -5 14 -19 26 -30 24 -22 59 -79 70 -112
5 -18 3 -22 -9 -17 -9 3 -14 10 -11 14 3 4 -7 11 -21 14 -14 4 -47 27 -73 51
-27 25 -53 45 -60 45 -6 0 -16 11 -21 25 -5 14 -14 25 -19 25 -6 0 -8 6 -5 14
3 9 -5 21 -19 31 -23 15 -97 125 -97 144 0 5 -6 14 -13 20 -19 15 -113 209
-122 248 -3 18 -11 35 -16 39 -5 3 -17 23 -26 45 -8 21 -19 39 -23 39 -4 0
-20 28 -34 63 -15 34 -34 69 -41 77 -12 13 -65 247 -78 345 -2 17 -5 -23 -6
-88 -1 -109 -3 -120 -28 -160 -17 -26 -30 -65 -35 -102 -4 -33 -12 -85 -17
-115 -17 -104 12 -470 38 -470 3 0 7 -19 8 -42 2 -74 45 -294 63 -327 5 -11
10 -31 10 -45 0 -23 18 -74 30 -86 20 -19 100 -244 107 -301 4 -36 2 -47 -10
-52 -22 -8 -87 51 -87 79 0 12 -7 24 -15 28 -8 3 -15 10 -15 16 0 6 -10 27
-23 48 -24 39 -43 90 -51 134 -6 35 -28 99 -38 114 -5 6 -9 46 -9 88 -1 42 -4
76 -9 76 -4 0 -15 24 -24 53 -9 28 -23 66 -32 82 -9 17 -19 68 -22 115 -4 59
-8 77 -13 60 l-7 -25 -1 25 c-2 48 30 336 50 460 22 135 63 300 102 420 14 41
35 120 47 175 18 83 84 305 96 326 3 5 150 -138 479 -465z m3399 423 c-19 -38
-34 -45 -34 -17 0 27 14 45 35 45 12 0 12 -4 -1 -28z m-973 -52 c-8 -8 -11 -7
-11 2 0 7 -4 9 -10 6 -5 -3 -10 1 -10 10 0 11 5 15 15 11 10 -3 15 1 16 12 1
10 4 7 6 -7 3 -13 0 -28 -6 -34z m969 -2 c-10 -12 -10 -15 0 -15 9 0 7 -7 -5
-20 -17 -19 -20 -19 -28 -5 -6 12 -3 23 14 41 24 25 41 25 19 -1z m-7 -77
c-13 -12 -25 -19 -28 -16 -8 7 23 38 38 38 6 0 2 -10 -10 -22z m-2220 -10 c2
-7 0 -21 -5 -30 -5 -11 -5 -18 1 -18 5 0 11 5 13 12 8 22 9 -135 2 -209 -6
-65 -9 -73 -28 -74 -16 0 -17 -2 -6 -7 14 -6 16 -14 11 -39 -1 -5 -6 -1 -11 7
-8 13 -10 12 -10 -2 0 -10 8 -19 18 -19 15 -1 15 -2 -1 -6 -18 -5 -18 -5 0
-19 16 -13 16 -13 1 -8 -10 3 -18 1 -18 -5 0 -6 6 -11 13 -11 8 0 7 -4 -3 -10
-13 -9 -13 -10 0 -10 13 0 13 -1 0 -10 -13 -9 -13 -10 0 -10 13 0 13 -1 0 -10
-13 -9 -13 -10 0 -10 12 0 12 -2 2 -9 -19 -12 -25 -71 -7 -71 11 0 15 -12 15
-46 0 -41 -2 -45 -22 -42 -21 3 -22 6 -19 118 1 63 4 117 6 120 1 3 6 70 10
150 4 93 11 147 18 152 8 5 7 8 -3 8 -13 0 -13 1 0 10 13 9 13 10 0 10 -13 0
-13 1 0 10 10 6 11 10 3 10 -11 0 -12 18 -4 73 2 12 19 8 24 -5z m1174 -38
c-1 -11 -7 -22 -14 -24 -7 -3 -13 -17 -13 -31 0 -31 -16 -33 -23 -3 -7 25 10
51 26 41 6 -3 7 -1 3 6 -10 15 1 44 13 36 5 -3 9 -14 8 -25z m1045 -2 c-12
-12 -24 -19 -28 -16 -3 4 4 16 16 28 12 12 24 19 28 16 3 -4 -4 -16 -16 -28z
m2 -43 c-13 -9 -20 -10 -23 -3 -2 6 5 17 15 25 13 9 20 10 22 3 2 -6 -4 -17
-14 -25z m-103 -42 c2 -55 -1 -118 -7 -200 -7 -87 0 -130 20 -114 11 9 15 7
19 -10 6 -23 -6 -63 -22 -73 -5 -3 -13 -20 -16 -38 -6 -24 -9 -28 -16 -16 -5
10 -19 14 -36 12 -16 -2 -22 -1 -15 2 16 8 15 41 -2 47 -8 3 -22 0 -32 -8 -16
-11 -16 -17 -6 -39 13 -29 16 -43 6 -33 -4 3 -13 0 -21 -8 -11 -11 -19 -12
-34 -5 -28 15 -39 4 -33 -33 3 -25 2 -28 -5 -12 -8 19 -9 19 -16 2 -6 -14 -10
-15 -21 -6 -15 12 -17 7 -14 -30 1 -18 -2 -22 -14 -18 -10 4 -18 -4 -26 -29
-7 -20 -18 -38 -26 -41 -7 -2 -16 -13 -19 -24 -4 -11 -11 -17 -16 -13 -5 3 -6
10 -3 16 5 7 -4 9 -25 6 -17 -2 -31 -1 -31 4 0 4 11 8 25 8 14 0 25 2 25 4 0
2 3 12 7 22 6 16 0 17 -67 10 -41 -3 -78 -12 -82 -19 -6 -9 -8 -9 -8 1 0 6
-11 12 -25 12 -14 0 -25 5 -25 10 0 6 10 10 23 10 20 1 20 2 5 11 -25 14 -24
77 2 104 10 11 21 37 24 57 6 47 16 65 26 48 5 -7 11 9 15 39 4 28 11 49 15
46 5 -3 14 5 21 17 23 46 193 209 244 235 17 9 37 22 46 29 26 23 92 53 117
54 19 0 22 -5 23 -37z m105 1 c-11 -7 -22 -11 -25 -8 -3 3 3 12 13 20 11 7 22
11 25 8 3 -3 -3 -12 -13 -20z m14 -24 c0 -11 -39 -34 -46 -27 -6 6 25 37 37
37 5 0 9 -4 9 -10z m-5 -40 c3 -6 -4 -14 -17 -19 -29 -11 -35 -6 -18 14 14 17
26 19 35 5z m-1984 -36 c8 -8 21 -14 27 -14 7 0 12 -4 12 -10 0 -5 7 -10 15
-10 8 0 15 -3 15 -8 0 -4 28 -37 63 -74 34 -36 71 -79 82 -94 11 -16 30 -39
41 -51 12 -12 20 -24 18 -26 -7 -7 19 -71 44 -110 17 -25 28 -34 33 -26 4 8 9
4 14 -10 3 -11 11 -21 16 -21 5 0 9 -13 9 -30 0 -20 5 -30 15 -30 9 0 15 -9
15 -24 0 -14 5 -28 11 -31 6 -4 9 -23 7 -43 -2 -22 2 -37 10 -40 7 -2 11 -19
11 -40 -2 -31 -3 -32 -6 -9 -4 22 -7 25 -17 14 -7 -7 -20 -26 -29 -42 -9 -17
-16 -24 -17 -17 0 6 -7 12 -15 12 -9 0 -18 7 -21 15 -4 8 -15 15 -26 15 -10 0
-17 4 -14 9 7 11 -13 9 -31 -2 -8 -5 -13 -3 -13 3 0 13 -46 61 -52 54 -3 -2
-20 2 -39 10 -19 9 -28 15 -21 16 6 0 12 7 12 15 0 8 -3 14 -7 14 -5 -1 -18
-1 -31 0 -19 1 -21 3 -10 15 7 8 18 12 23 9 6 -3 -5 9 -24 26 -24 23 -37 29
-44 22 -15 -15 -44 -14 -50 2 -3 6 -6 -7 -6 -29 -1 -27 5 -46 16 -55 20 -17
25 -16 35 8 7 17 8 17 5 -1 -3 -25 -42 -39 -59 -22 -7 7 -19 11 -26 8 -6 -2
-12 3 -12 12 0 24 -13 19 -27 -9 -9 -21 -9 -25 4 -25 8 0 11 -5 8 -10 -4 -6
-16 -8 -27 -4 -35 11 -52 12 -69 3 -34 -17 -44 6 -44 103 0 51 -6 113 -14 137
-14 50 -8 171 10 182 8 5 8 9 -1 14 -6 4 -8 14 -5 24 8 19 14 44 24 91 4 19
13 34 19 33 7 -2 12 6 12 17 0 11 4 20 9 20 5 0 11 9 14 21 5 19 10 20 49 14
24 -4 50 -13 59 -21z m1979 -8 c0 -7 -9 -16 -20 -19 -13 -3 -20 0 -20 8 0 8 8
16 18 18 9 3 18 5 20 6 1 0 2 -5 2 -13z m10 -34 c0 -5 -11 -14 -25 -20 -20 -9
-25 -9 -25 2 0 13 14 20 43 25 4 0 7 -3 7 -7z m-14 -57 c-19 -14 -36 -12 -36
6 0 5 12 9 28 9 26 -1 26 -1 8 -15z m-4 -37 c-19 -19 -14 -30 11 -23 l22 6
-22 -17 c-22 -16 -21 -50 1 -37 6 4 3 -4 -6 -19 -17 -26 -14 -44 7 -30 6 4 -1
-3 -15 -15 -27 -25 -49 -31 -31 -10 6 8 9 16 6 19 -3 3 1 11 10 18 19 16 20
31 0 24 -14 -6 -15 7 -6 84 0 6 9 12 18 12 13 0 14 -3 5 -12z m-1087 -95 c-3
-19 -9 -33 -12 -30 -3 3 -2 25 2 49 5 24 10 37 12 30 3 -7 2 -29 -2 -49z
m-1098 -95 c-2 -13 -4 -5 -4 17 -1 22 1 32 4 23 2 -10 2 -28 0 -40z m-110 -20
c-2 -13 -4 -3 -4 22 0 25 2 35 4 23 2 -13 2 -33 0 -45z m60 25 c-3 -10 -5 -4
-5 12 0 17 2 24 5 18 2 -7 2 -21 0 -30z m888 17 c3 -5 1 -10 -4 -10 -6 0 -11
5 -11 10 0 6 2 10 4 10 3 0 8 -4 11 -10z m1345 1 c0 -5 -7 -12 -16 -15 -24 -9
-28 -7 -14 9 14 17 30 20 30 6z m639 -35 c-7 -14 -16 -26 -20 -26 -5 0 0 13 9
29 20 36 27 34 11 -3z m-654 -6 c-10 -11 -23 -20 -28 -20 -6 0 -2 9 8 20 10
11 23 20 28 20 6 0 2 -9 -8 -20z m15 -30 c0 -5 -15 -17 -32 -26 l-33 -17 24
27 c25 27 41 33 41 16z m-1320 -15 c0 -8 -9 -15 -20 -15 -20 0 -26 11 -13 23
12 13 33 7 33 -8z m1295 -35 c-3 -5 -12 -10 -18 -10 -7 0 -6 4 3 10 19 12 23
12 15 0z m-1318 -32 c2 -27 0 -29 -7 -13 -11 26 -12 45 -2 45 4 0 8 -15 9 -32z
m233 18 c0 -8 -4 -18 -10 -21 -5 -3 -10 3 -10 14 0 12 5 21 10 21 6 0 10 -6
10 -14z m-1130 -21 c0 -8 -5 -15 -12 -15 -6 0 -4 -6 7 -13 18 -14 15 -19 -15
-29 -19 -7 -26 38 -9 58 15 18 29 18 29 -1z m1957 -17 c-3 -8 -6 -5 -6 6 -1
11 2 17 5 13 3 -3 4 -12 1 -19z m773 18 c0 -2 -8 -10 -17 -17 -16 -13 -17 -12
-4 4 13 16 21 21 21 13z m-2793 -169 c-2 -23 -3 -1 -3 48 0 50 1 68 3 42 2
-26 2 -67 0 -90z m63 88 c0 -8 -4 -15 -10 -15 -5 0 -10 7 -10 15 0 8 5 15 10
15 6 0 10 -7 10 -15z m1612 -51 c-6 -35 -12 -29 -12 14 0 23 3 32 9 24 4 -7 6
-24 3 -38z m-1608 -5 c6 -33 1 -49 -15 -49 -16 0 -23 32 -8 41 10 6 10 9 2 9
-7 0 -13 7 -13 15 0 28 27 15 34 -16z m903 -11 c-3 -8 -6 -5 -6 6 -1 11 2 17
5 13 3 -3 4 -12 1 -19z m678 12 c3 -5 -1 -10 -9 -10 -9 0 -16 5 -16 10 0 6 4
10 9 10 6 0 13 -4 16 -10z m-858 -22 c-3 -8 -6 -5 -6 6 -1 11 2 17 5 13 3 -3
4 -12 1 -19z m2609 -110 c-21 -40 -44 -79 -52 -87 -22 -24 -27 -6 -8 31 28 54
86 139 92 134 3 -3 -12 -38 -32 -78z m-3341 50 c6 -4 2 -8 -7 -8 -10 0 -18 7
-18 17 0 9 3 12 8 7 4 -5 12 -12 17 -16z m-145 -28 c0 -5 -2 -10 -4 -10 -3 0
-8 5 -11 10 -3 6 -1 10 4 10 6 0 11 -4 11 -10z m410 -2 c26 16 27 15 33 -7 3
-12 -1 -22 -10 -25 -8 -3 -11 -1 -8 4 9 14 -19 12 -33 -2 -8 -8 -12 -9 -12 -1
0 6 -3 20 -6 30 -5 15 -4 15 5 3 9 -12 14 -13 31 -2z m-250 -58 c0 -14 -6 -20
-22 -19 -19 1 -19 2 -5 6 11 3 16 11 13 19 -3 8 -1 14 4 14 6 0 10 -9 10 -20z
m995 -8 c-3 -3 -11 0 -18 7 -9 10 -8 11 6 5 10 -3 15 -9 12 -12z m-378 -17 c0
-8 -4 -15 -9 -15 -4 0 -8 7 -8 15 0 8 4 15 8 15 5 0 9 -7 9 -15z m633 -37 c0
-30 -4 -38 -17 -38 -15 0 -16 2 -3 10 13 8 12 10 -4 10 -12 0 -16 5 -12 16 3
9 6 21 6 28 0 7 7 13 15 13 11 0 15 -11 15 -39z m-1250 12 c0 -5 -7 -10 -16
-10 -8 0 -13 -4 -9 -9 3 -5 1 -12 -5 -16 -6 -4 -10 5 -10 19 0 19 5 26 20 26
11 0 20 -4 20 -10z m670 -20 c0 -5 -4 -10 -10 -10 -5 0 -10 5 -10 10 0 6 5 10
10 10 6 0 10 -4 10 -10z m-666 -44 c-3 -9 -10 -16 -16 -16 -5 0 -7 -4 -4 -9 3
-5 -1 -11 -9 -15 -14 -5 -16 -1 -19 36 -1 7 10 15 24 18 30 8 32 7 24 -14z
m1236 -23 c0 -10 -4 -14 -8 -8 -4 6 -11 13 -16 18 -5 4 -2 7 7 7 10 0 17 -8
17 -17z m-1242 -40 c-10 -2 -26 -2 -35 0 -10 3 -2 5 17 5 19 0 27 -2 18 -5z
m1119 -18 c-15 -16 -19 -13 -11 9 3 9 10 13 15 10 5 -3 3 -11 -4 -19z m133 15
c0 -5 -8 -10 -17 -10 -15 0 -16 2 -3 10 19 12 20 12 20 0z m-1230 -30 c0 -13
-10 -22 -32 -28 -18 -5 -34 -9 -35 -8 -1 1 1 13 4 29 4 22 11 27 34 27 22 0
29 -5 29 -20z m0 -62 c0 -18 -2 -20 -9 -9 -8 12 -14 13 -36 3 -21 -10 -26 -10
-23 0 4 11 32 23 61 27 4 1 7 -9 7 -21z m1100 18 c0 -2 -9 -6 -20 -9 -11 -3
-18 -1 -14 4 5 9 34 13 34 5z m-1122 -48 c-6 -18 -28 -21 -28 -4 0 9 7 16 16
16 9 0 14 -5 12 -12z m3890 -450 c-2 -7 7 -14 20 -16 15 -2 22 2 22 12 0 10 6
13 15 10 18 -7 19 -31 3 -83 -11 -34 -17 -40 -48 -44 -46 -6 -61 12 -53 67 5
41 18 66 34 66 5 0 8 -6 7 -12z m-2831 -444 c-3 -3 -12 -4 -19 -1 -8 3 -5 6 6
6 11 1 17 -2 13 -5z m-2757 -61 c0 -35 -13 -63 -27 -63 -8 0 -11 -4 -8 -10 3
-5 1 -10 -4 -10 -15 0 -14 7 5 57 17 44 34 57 34 26z m90 -17 c0 -19 3 -43 6
-53 4 -14 4 -15 -4 -3 -17 25 -26 90 -13 90 6 0 11 -15 11 -34z m144 28 c13
-5 15 -15 10 -43 -7 -40 -27 -61 -58 -61 -19 0 -18 3 9 24 27 21 28 25 15 42
-9 11 -10 15 -2 10 6 -4 12 -2 12 3 0 6 -16 11 -35 11 -19 0 -35 -5 -35 -11 0
-5 4 -8 8 -5 4 2 14 1 22 -5 12 -7 12 -9 -3 -9 -10 0 -15 -4 -12 -10 3 -5 0
-10 -9 -10 -8 0 -17 -6 -19 -12 -3 -7 -6 -2 -6 12 -1 14 -4 35 -7 48 -6 21 -3
22 44 22 28 0 58 -3 66 -6z m103 -37 c-12 -37 -37 -51 -37 -20 0 9 3 13 7 10
4 -4 13 7 20 24 18 43 24 33 10 -14z m-289 -24 c6 -26 6 -43 1 -43 -11 0 -15
12 -23 64 -7 51 10 35 22 -21z m342 6 c0 -25 -5 -39 -12 -39 -9 0 -13 15 -13
44 0 31 4 42 13 39 7 -3 12 -22 12 -44z m57 -16 c-2 -16 -4 -5 -4 22 0 28 2
40 4 28 2 -13 2 -35 0 -50z m100 20 c-3 -10 -5 -4 -5 12 0 17 2 24 5 18 2 -7
2 -21 0 -30z m203 -13 c0 -20 -16 -1 -25 30 -7 24 -7 24 9 5 8 -11 16 -27 16
-35z m87 15 c-16 -17 -17 -14 -10 14 4 15 8 19 13 10 5 -6 3 -18 -3 -24z
m-240 -27 c-2 -13 -4 -5 -4 17 -1 22 1 32 4 23 2 -10 2 -28 0 -40z m-75 6 c-3
-15 -8 -22 -14 -16 -9 9 -1 42 12 42 4 0 5 -12 2 -26z m-502 -18 c0 -3 -4 -8
-10 -11 -5 -3 -10 -1 -10 4 0 6 5 11 10 11 6 0 10 -2 10 -4z m323 -13 c-7 -2
-21 -2 -30 0 -10 3 -4 5 12 5 17 0 24 -2 18 -5z m-84 -62 c0 -9 -5 -3 -11 12
-9 24 -12 26 -26 15 -15 -12 -16 -11 -3 5 14 18 16 18 28 1 7 -10 13 -25 12
-33z m-146 32 c-7 -2 -19 -2 -25 0 -7 3 -2 5 12 5 14 0 19 -2 13 -5z m67 -2
c0 -5 3 -24 6 -42 4 -23 2 -29 -4 -19 -15 25 -23 70 -12 70 5 0 10 -4 10 -9z
m128 -39 c6 -23 6 -42 2 -42 -7 0 -20 48 -20 78 0 25 8 9 18 -36z m-278 23 c6
-8 10 -22 7 -32 -4 -14 -5 -14 -6 4 0 12 -9 27 -18 32 -10 6 -13 11 -7 11 6 0
17 -7 24 -15z m552 -27 c-6 -6 -7 0 -4 19 5 21 7 23 10 9 2 -10 0 -22 -6 -28z
m128 33 c0 -5 -9 -7 -20 -4 -11 3 -20 7 -20 9 0 2 9 4 20 4 11 0 20 -4 20 -9z
m2053 -78 c-7 -2 -21 -2 -30 0 -10 3 -4 5 12 5 17 0 24 -2 18 -5z"/>
<path d="M2428 7873 c7 -3 16 -2 19 1 4 3 -2 6 -13 5 -11 0 -14 -3 -6 -6z"/>
<path d="M2490 7855 c46 -18 64 -17 25 0 -16 8 -37 14 -45 14 -8 0 1 -7 20
-14z"/>
<path d="M3123 7473 c43 -2 110 -2 150 0 40 1 5 3 -78 3 -82 0 -115 -2 -72 -3z"/>
<path d="M4882 7615 c0 -16 2 -22 5 -12 2 9 2 23 0 30 -3 6 -5 -1 -5 -18z"/>
<path d="M5267 7668 c8 -46 13 -48 13 -5 0 21 -4 37 -10 37 -5 0 -7 -14 -3
-32z"/>
<path d="M1153 7445 c0 -22 2 -30 4 -17 2 12 2 30 0 40 -3 9 -5 -1 -4 -23z"/>
<path d="M4185 7560 l-40 -7 35 -1 c19 -1 42 3 50 8 16 11 14 11 -45 0z"/>
<path d="M4118 7543 c7 -3 16 -2 19 1 4 3 -2 6 -13 5 -11 0 -14 -3 -6 -6z"/>
<path d="M4040 7310 c0 -28 -3 -32 -11 -20 -9 13 -10 13 -6 0 2 -8 10 -15 18
-15 17 0 25 43 10 58 -8 8 -11 1 -11 -23z"/>
<path d="M3970 7206 c-24 -8 -36 -18 -38 -34 -2 -12 1 -21 7 -20 5 2 17 -6 26
-17 16 -20 16 -20 12 2 -4 18 1 22 29 28 19 3 34 10 34 15 0 4 3 15 6 23 7 18
-26 19 -76 3z m30 -22 c0 -8 -4 -12 -10 -9 -5 3 -10 10 -10 16 0 5 5 9 10 9 6
0 10 -7 10 -16z m-35 -4 c-3 -5 -11 -10 -16 -10 -6 0 -7 5 -4 10 3 6 11 10 16
10 6 0 7 -4 4 -10z"/>
<path d="M3877 7083 c-4 -3 -7 -11 -7 -17 0 -6 5 -5 12 2 6 6 9 14 7 17 -3 3
-9 2 -12 -2z"/>
<path d="M3134 6088 c-7 -22 16 -48 42 -48 19 0 35 26 27 45 -5 14 -3 16 7 10
9 -5 11 -4 6 3 -4 7 -22 12 -41 12 -26 0 -35 -5 -41 -22z"/>
<path d="M3066 6091 c-4 -5 3 -7 14 -4 23 6 26 13 6 13 -8 0 -17 -4 -20 -9z"/>
<path d="M4274 6079 c-3 -6 -2 -15 3 -20 5 -5 9 -1 9 11 0 23 -2 24 -12 9z"/>
<path d="M1917 6062 c-10 -10 -17 -26 -17 -35 0 -9 -7 -17 -15 -17 -13 0 -65
-76 -65 -95 0 -4 17 5 38 21 23 17 31 20 20 8 -22 -26 -24 -58 -3 -50 15 6 20
-5 8 -18 -4 -3 -7 -20 -8 -37 l-2 -32 28 34 c21 26 31 31 39 23 9 -9 9 -17 0
-34 -7 -12 -8 -20 -2 -16 5 3 13 -1 16 -10 3 -8 2 -12 -4 -9 -6 3 -7 -1 -4
-10 5 -13 9 -13 22 -3 13 11 14 10 7 -12 -9 -29 -3 -25 15 9 8 15 8 21 1 17
-16 -10 -14 9 2 23 8 6 17 7 22 3 4 -4 5 4 2 18 -5 22 -4 23 6 6 7 -10 33 -46
60 -79 26 -33 47 -66 47 -73 0 -16 37 -37 50 -29 17 11 -1 26 -23 20 -12 -2
-16 -2 -9 1 6 3 10 10 7 15 -4 5 1 6 9 3 23 -9 20 29 -3 50 -11 10 -20 25 -19
34 0 21 -30 103 -44 119 -7 8 -7 22 0 40 6 20 6 32 -2 40 -28 30 -34 41 -28
49 4 5 -1 2 -10 -5 -10 -7 -15 -18 -11 -25 3 -6 2 -8 -2 -3 -5 4 -22 -5 -38
-20 -21 -20 -31 -24 -34 -15 -4 10 -10 9 -26 -5 l-21 -18 17 27 c23 36 22 45
-3 23 -25 -22 -36 -14 -20 15 6 12 9 24 6 27 -3 3 -1 14 5 24 12 24 7 24 -14
1z m204 -232 c10 -22 16 -40 13 -40 -8 0 -44 64 -44 79 0 20 10 7 31 -39z"/>
<path d="M2965 6066 c-18 -13 -18 -14 8 -9 15 3 30 9 33 14 8 14 -20 10 -41
-5z"/>
<path d="M2314 6029 c-21 -23 -23 -29 -9 -21 25 13 62 52 48 52 -5 0 -22 -14
-39 -31z"/>
<path d="M4429 6040 c-1 -5 -2 -16 -3 -22 -1 -7 -9 -12 -18 -12 -15 1 -16 -2
-6 -20 l11 -21 -23 20 c-22 20 -22 19 2 -20 14 -22 30 -40 36 -40 6 0 14 -3
18 -7 15 -16 19 -7 18 37 -1 30 2 43 9 38 6 -4 1 8 -12 25 -24 34 -30 38 -32
22z"/>
<path d="M4010 6025 c14 -8 30 -14 35 -14 6 0 -1 6 -15 14 -14 8 -29 14 -35
14 -5 0 1 -6 15 -14z"/>
<path d="M2885 6020 c-3 -6 1 -7 9 -4 18 7 21 14 7 14 -6 0 -13 -4 -16 -10z"/>
<path d="M4250 6010 c5 -8 15 -24 23 -34 14 -19 15 -19 22 3 8 26 -9 50 -35
48 -14 -1 -16 -5 -10 -17z"/>
<path d="M2017 5813 c-14 -13 -6 -61 13 -85 11 -14 31 -28 44 -30 l25 -5 -20
28 c-26 37 -16 37 17 2 36 -39 7 5 -37 55 -20 23 -39 39 -42 35z"/>
<path d="M4182 5762 c2 -11 -4 -27 -12 -38 -14 -18 -14 -19 7 -1 13 11 19 25
16 38 -7 24 -15 25 -11 1z"/>
<path d="M4192 5710 c-29 -28 -49 -50 -45 -50 5 0 26 18 48 40 21 21 41 37 45
35 4 -2 7 2 7 10 0 8 -1 15 -1 15 -1 -1 -25 -23 -54 -50z"/>
<path d="M1994 5674 c11 -11 25 -14 47 -9 37 8 35 10 -19 19 -40 6 -43 5 -28
-10z"/>
<path d="M2106 5629 c-10 -17 -16 -33 -13 -35 9 -10 60 43 53 54 -11 19 -20
14 -40 -19z"/>
<path d="M2175 5630 c3 -5 1 -10 -5 -10 -22 0 -69 -41 -64 -54 4 -10 19 -6 61
17 51 28 54 31 38 44 -22 15 -39 17 -30 3z"/>
<path d="M2075 5561 c-6 -11 9 -23 19 -14 9 9 7 23 -3 23 -6 0 -12 -4 -16 -9z"/>
<path d="M2169 5537 c-65 -45 -139 -99 -139 -103 0 -2 39 21 88 51 129 80 120
74 101 74 -9 1 -31 -9 -50 -22z"/>
<path d="M2180 5467 c-20 -12 -58 -40 -84 -62 -26 -22 -52 -39 -58 -37 -5 1
-6 -3 -2 -9 5 -8 2 -10 -8 -6 -17 6 -57 -17 -47 -27 7 -7 111 35 121 49 4 6
12 11 18 11 23 3 24 5 11 13 -16 10 -6 31 15 31 8 0 14 4 14 8 0 9 53 42 67
42 4 0 -1 -7 -11 -15 -11 -8 -17 -17 -15 -20 10 -9 42 22 35 33 -10 16 -15 15
-56 -11z"/>
<path d="M2860 5455 c-7 -9 -11 -18 -8 -20 3 -3 11 1 18 10 7 9 11 18 8 20 -3
3 -11 -1 -18 -10z"/>
<path d="M4067 5464 c-3 -3 20 -26 51 -51 81 -66 95 -72 37 -19 -27 25 -45 46
-39 46 5 0 15 -5 22 -12 7 -7 12 -9 12 -5 0 7 -60 47 -71 47 -3 0 -8 -3 -12
-6z m38 -22 c-3 -3 -11 0 -18 7 -9 10 -8 11 6 5 10 -3 15 -9 12 -12z"/>
<path d="M4047 5429 c-14 -8 -16 -14 -6 -25 8 -10 8 -14 0 -14 -6 0 -11 -5
-11 -12 0 -16 81 -121 88 -114 3 4 17 -4 30 -16 l25 -23 -14 25 c-7 14 -13 28
-14 32 0 3 -4 10 -9 15 -6 5 -6 2 -1 -7 5 -9 5 -12 -1 -7 -5 5 -9 12 -9 15 -1
4 -6 17 -13 30 -7 12 -10 22 -6 22 4 0 -1 10 -12 22 l-19 22 27 -20 c15 -10
26 -24 23 -31 -6 -18 29 -45 42 -32 8 8 13 7 18 -2 6 -8 4 -10 -6 -4 -12 8
-12 6 0 -8 15 -18 26 -23 16 -7 -9 15 7 12 35 -6 14 -8 9 -3 -10 13 -19 15
-51 43 -70 63 -71 71 -84 79 -103 69z m104 -106 c13 -16 12 -17 -3 -4 -17 13
-22 21 -14 21 2 0 10 -8 17 -17z"/>
<path d="M1995 5414 c-34 -25 -126 -116 -114 -112 17 6 114 90 128 111 13 21
12 21 -14 1z"/>
<path d="M4270 5426 c0 -2 8 -10 18 -17 15 -13 16 -12 3 4 -13 16 -21 21 -21
13z"/>
<path d="M4172 5404 c10 -10 20 -15 24 -12 3 4 -5 12 -18 18 -22 12 -22 12 -6
-6z"/>
<path d="M1999 5373 c-13 -16 -12 -17 4 -4 9 7 17 15 17 17 0 8 -8 3 -21 -13z"/>
<path d="M4204 5378 c-4 -7 -3 -8 4 -4 7 4 12 3 12 -2 0 -5 7 -9 15 -9 20 0
19 4 -4 17 -14 7 -22 7 -27 -2z"/>
<path d="M2091 5346 c-13 -13 -29 -22 -35 -20 -7 3 -19 -2 -26 -11 -15 -18 0
-21 18 -3 9 9 12 8 12 -6 0 -16 6 -13 31 13 16 18 29 37 27 42 -2 6 -14 -1
-27 -15z"/>
<path d="M2249 5322 c-44 -48 -52 -62 -59 -104 -8 -40 7 -138 21 -138 3 0 13
41 21 91 9 49 25 108 36 130 24 48 14 58 -19 21z"/>
<path d="M2189 5323 c-13 -16 -12 -17 4 -4 9 7 17 15 17 17 0 8 -8 3 -21 -13z"/>
<path d="M2100 5269 c-20 -16 -21 -20 -6 -15 19 7 19 6 1 -14 -10 -11 -15 -20
-10 -20 4 0 1 -8 -6 -17 -12 -15 -12 -16 1 -8 49 28 98 67 104 81 7 18 -2 13
-53 -31 l-24 -20 12 23 c6 12 16 22 21 22 6 0 10 5 10 10 0 16 -23 11 -50 -11z"/>
<path d="M4120 5251 c0 -5 7 -15 17 -22 15 -13 15 -12 4 9 -12 23 -21 28 -21
13z"/>
<path d="M1150 5225 c-7 -9 -10 -18 -7 -21 3 -3 10 4 17 15 13 25 8 27 -10 6z"/>
<path d="M2668 5204 c-50 -32 -48 -40 2 -14 22 11 40 25 40 30 0 13 2 13 -42
-16z"/>
<path d="M2580 5090 c-13 -8 -12 -10 3 -10 9 0 17 5 17 10 0 12 -1 12 -20 0z"/>
<path d="M3750 4423 c0 -5 10 -19 21 -33 l20 -25 -16 33 c-15 30 -25 41 -25
25z"/>
<path d="M3680 4294 c0 -5 7 -19 15 -30 15 -18 15 -18 8 0 -4 13 -3 17 5 12 7
-4 12 -3 12 3 0 5 -4 13 -10 16 -5 3 -10 0 -10 -7 0 -9 -3 -9 -10 2 -5 8 -10
10 -10 4z"/>
<path d="M4182 2730 c0 -14 2 -19 5 -12 2 6 2 18 0 25 -3 6 -5 1 -5 -13z"/>
<path d="M6105 1069 c-8 -13 -6 -15 23 -24 22 -6 23 -5 13 14 -13 23 -26 27
-36 10z"/>
<path d="M5437 973 c-12 -12 -7 -22 8 -17 8 4 15 10 15 15 0 11 -14 12 -23 2z"/>
<path d="M3645 2490 c3 -5 8 -10 11 -10 2 0 4 5 4 10 0 6 -5 10 -11 10 -5 0
-7 -4 -4 -10z"/>
<path d="M1832 1713 c5 -25 28 -28 28 -4 0 12 -6 21 -16 21 -9 0 -14 -7 -12
-17z"/>
<path d="M2227 2360 c6 -22 15 -19 19 5 1 8 -4 15 -11 15 -8 0 -11 -7 -8 -20z"/>
<path d="M2218 2203 c7 -3 16 -2 19 1 4 3 -2 6 -13 5 -11 0 -14 -3 -6 -6z"/>
<path d="M2200 1921 c0 -6 5 -13 10 -16 6 -3 10 1 10 9 0 9 -4 16 -10 16 -5 0
-10 -4 -10 -9z"/>
<path d="M2190 1870 c0 -5 7 -10 15 -10 8 0 15 5 15 10 0 6 -7 10 -15 10 -8 0
-15 -4 -15 -10z"/>
<path d="M4343 2268 c-14 -18 -25 -148 -13 -148 6 0 10 21 10 48 0 26 4 62 9
80 10 35 9 39 -6 20z"/>
<path d="M4065 1859 c-12 -19 5 -23 22 -6 16 16 16 17 1 17 -9 0 -20 -5 -23
-11z"/>
<path d="M2436 1771 c-4 -7 -5 -15 -2 -18 9 -9 19 4 14 18 -4 11 -6 11 -12 0z"/>
<path d="M2761 1687 c-8 -10 -7 -14 4 -14 8 0 16 6 19 14 3 7 2 13 -3 13 -5 0
-14 -6 -20 -13z"/>
<path d="M1645 9328 c9 -29 85 -173 139 -260 57 -93 182 -259 258 -342 l64
-69 47 23 47 24 0 57 0 58 -57 40 c-31 23 -63 41 -71 41 -12 0 -10 5 6 23 34
36 29 57 -14 57 -26 0 -43 8 -65 29 -33 33 -35 43 -14 61 8 7 15 17 15 23 0 6
-11 0 -26 -13 -29 -28 -32 -26 -64 59 -12 30 -40 86 -63 125 l-42 71 -6 -45
c-7 -55 3 -102 41 -188 47 -104 3 -38 -76 114 -64 123 -71 134 -97 134 -25 0
-27 -3 -22 -22z m428 -508 c54 -56 87 -104 87 -128 0 -3 -18 12 -41 33 -68 66
-221 260 -190 240 9 -5 12 -3 9 6 -3 8 -10 13 -16 12 -6 -2 -9 4 -5 12 4 11
18 -3 49 -47 25 -35 73 -92 107 -128z"/>
<path d="M1920 9341 c0 -24 108 -141 125 -135 6 3 18 -2 25 -11 11 -14 8 -22
-26 -57 -34 -36 -35 -38 -7 -16 29 23 39 26 90 21 63 -5 87 -18 78 -41 -4 -12
-3 -13 10 -2 13 10 15 9 15 -7 0 -30 -11 -35 -37 -18 -38 25 -26 2 25 -48 46
-46 74 -58 87 -37 8 12 -13 48 -130 224 l-90 135 -82 1 c-46 0 -83 -4 -83 -9z"/>
<path d="M2212 9277 c35 -40 131 -155 213 -255 l150 -182 577 0 577 0 136 170
c126 156 233 270 256 270 13 0 12 -3 -16 -72 -28 -69 -30 -78 -14 -78 14 0 74
50 74 61 0 5 4 9 10 10 27 2 8 -27 -70 -104 -84 -83 -100 -107 -69 -107 8 0
12 4 9 10 -3 5 33 49 80 97 l87 88 49 -28 c27 -15 52 -27 55 -27 9 0 -2 25
-12 26 -5 0 -21 6 -37 12 l-27 12 45 55 c24 30 52 69 60 85 l16 30 -1106 0
-1106 0 63 -73z m2058 32 c-7 -11 -14 -18 -17 -15 -3 3 0 12 7 21 18 21 23 19
10 -6z"/>
<path d="M4490 9304 c-60 -144 -98 -219 -109 -216 -7 1 -9 -2 -6 -9 10 -14
-52 -78 -92 -95 -51 -22 -64 -19 -58 14 5 26 5 26 -6 4 -8 -15 -18 -20 -30
-17 -28 9 -33 -14 -9 -40 28 -30 23 -54 -19 -82 -19 -13 -30 -23 -25 -23 5 0
3 -4 -5 -9 -11 -7 -12 -13 -4 -23 5 -7 13 -28 16 -46 6 -30 5 -32 -9 -18 -29
30 -50 36 -88 25 -32 -9 -42 -29 -14 -29 6 0 53 -19 105 -41 51 -23 95 -40 96
-38 2 2 33 45 69 94 81 110 174 258 218 345 29 57 100 231 100 245 0 3 -16 5
-35 5 -21 0 -35 -5 -35 -12 0 -7 -3 -24 -6 -38 -5 -21 -4 -22 6 -10 10 13 11
12 6 -3 -3 -10 -6 -21 -6 -23 0 -3 -5 -2 -12 2 -7 5 -8 3 -3 -5 8 -14 -24 -93
-34 -86 -8 4 -81 -138 -81 -157 0 -16 -51 -101 -57 -95 -2 3 9 38 26 79 67
163 132 341 127 346 -3 3 -15 -17 -26 -44z m-162 -440 c-16 -25 -34 -41 -40
-38 -6 4 -8 3 -5 -3 8 -12 -53 -83 -71 -83 -6 0 -12 -4 -12 -10 0 -5 -7 -10
-15 -10 -8 0 -15 5 -15 10 0 12 81 87 87 80 2 -3 11 9 20 27 8 18 20 31 26 30
6 -1 12 7 14 18 8 43 12 48 27 36 12 -10 10 -19 -16 -57z"/>
<path d="M4405 9189 c-4 -6 -5 -12 -2 -15 2 -3 7 2 10 11 7 17 1 20 -8 4z"/>
<path d="M5052 9025 c0 -16 2 -22 5 -12 2 9 2 23 0 30 -3 6 -5 -1 -5 -18z"/>
<path d="M2119 8921 c-22 -19 -23 -20 -4 -21 30 0 52 17 39 30 -8 8 -18 5 -35
-9z"/>
</g>
</svg>
